<svg xmlns="http://www.w3.org/2000/svg" xmlns:xlink="http://www.w3.org/1999/xlink" contentStyleType="text/css" data-diagram-type="STATE" height="63px" preserveAspectRatio="none" style="width:556px;height:63px;background:#FFFFFF;" version="1.1" viewBox="0 0 556 63" width="556px" zoomAndPan="magnify"><defs/><g><ellipse cx="16" cy="32" fill="#222222" rx="10" ry="10" style="stroke:#222222;stroke-width:1;"/><g id="Schlafe"><rect fill="#F1F1F1" height="50" rx="12.5" ry="12.5" style="stroke:#181818;stroke-width:0.5;" width="71.4678" x="61.27" y="7"/><line style="stroke:#181818;stroke-width:0.5;" x1="61.27" x2="132.7378" y1="33.2969" y2="33.2969"/><text fill="#000000" font-family="sans-serif" font-size="14" lengthAdjust="spacing" textLength="51.4678" x="71.27" y="24.9951">Schlafe</text></g><g id="schlafe"><rect fill="#F1F1F1" height="50" rx="12.5" ry="12.5" style="stroke:#181818;stroke-width:0.5;" width="69.875" x="168.06" y="7"/><line style="stroke:#181818;stroke-width:0.5;" x1="168.06" x2="237.935" y1="33.2969" y2="33.2969"/><text fill="#000000" font-family="sans-serif" font-size="14" lengthAdjust="spacing" textLength="49.875" x="178.06" y="24.9951">schlafe</text></g><g id="Wach"><rect fill="#F1F1F1" height="50" rx="12.5" ry="12.5" style="stroke:#181818;stroke-width:0.5;" width="58.9922" x="272.5" y="7"/><line style="stroke:#181818;stroke-width:0.5;" x1="272.5" x2="331.4922" y1="33.2969" y2="33.2969"/><text fill="#000000" font-family="sans-serif" font-size="14" lengthAdjust="spacing" textLength="38.9922" x="282.5" y="24.9951">Wach</text></g><g id="Zaehnegeputzt"><rect fill="#F1F1F1" height="50" rx="12.5" ry="12.5" style="stroke:#181818;stroke-width:0.5;" width="126.7295" x="366.64" y="7"/><line style="stroke:#181818;stroke-width:0.5;" x1="366.64" x2="493.3695" y1="33.2969" y2="33.2969"/><text fill="#000000" font-family="sans-serif" font-size="14" lengthAdjust="spacing" textLength="106.7295" x="376.64" y="24.9951">Zaehnegeputzt</text></g><ellipse cx="539" cy="32" fill="none" rx="11" ry="11" style="stroke:#222222;stroke-width:1;"/><ellipse cx="539" cy="32" fill="#222222" rx="6" ry="6" style="stroke:#222222;stroke-width:1;"/><!--link *start* to Schlafe--><g class="link" data-entity-1=".start." data-entity-2="Schlafe" data-source-line="1" data-uid="lnk4" id="link_.start._Schlafe"><path d="M26.44,32 C37.93,32 43.41,32 54.89,32" fill="none" id="*start*-to-Schlafe" style="stroke:#181818;stroke-width:1;"/><polygon fill="#181818" points="60.89,32,51.89,28,55.89,32,51.89,36,60.89,32" style="stroke:#181818;stroke-width:1;"/></g><!--link schlafe to Wach--><g class="link" data-entity-1="schlafe" data-entity-2="Wach" data-source-line="2" data-uid="lnk7" id="link_schlafe_Wach"><path d="M238.19,32 C249.49,32 254.79,32 266.09,32" fill="none" id="schlafe-to-Wach" style="stroke:#181818;stroke-width:1;"/><polygon fill="#181818" points="272.09,32,263.09,28,267.09,32,263.09,36,272.09,32" style="stroke:#181818;stroke-width:1;"/></g><!--link Wach to Zaehnegeputzt--><g class="link" data-entity-1="Wach" data-entity-2="Zaehnegeputzt" data-source-line="3" data-uid="lnk9" id="link_Wach_Zaehnegeputzt"><path d="M331.5,32 C343.17,32 348.84,32 360.51,32" fill="none" id="Wach-to-Zaehnegeputzt" style="stroke:#181818;stroke-width:1;"/><polygon fill="#181818" points="366.51,32,357.51,28,361.51,32,357.51,36,366.51,32" style="stroke:#181818;stroke-width:1;"/></g><!--link Zaehnegeputzt to *end*--><g class="link" data-entity-1="Zaehnegeputzt" data-entity-2=".end." data-source-line="4" data-uid="lnk11" id="link_Zaehnegeputzt_.end."><path d="M493.44,32 C504.83,32 510.22,32 521.61,32" fill="none" id="Zaehnegeputzt-to-*end*" style="stroke:#181818;stroke-width:1;"/><polygon fill="#181818" points="527.61,32,518.61,28,522.61,32,518.61,36,527.61,32" style="stroke:#181818;stroke-width:1;"/></g><!--SRC=[YzQALT2rKmXEpiX9J4lbAeRG8A7mnEGCBX01uaGbfcRafQQd5fIML9LmeV10qj5QiG00]--></g></svg>